<?xml version="1.0" standalone="no"?>
<!DOCTYPE svg PUBLIC "-//W3C//DTD SVG 20010904//EN"
 "http://www.w3.org/TR/2001/REC-SVG-20010904/DTD/svg10.dtd">
<svg version="1.0" xmlns="http://www.w3.org/2000/svg"
 width="160.000000pt" height="160.000000pt" viewBox="0 0 160.000000 160.000000"
 preserveAspectRatio="xMidYMid meet">
<metadata>
Created by potrace 1.14, written by Peter Selinger 2001-2017
</metadata>
<g transform="translate(0.000000,160.000000) scale(0.100000,-0.100000)"
fill="#000000" stroke="none">
<path d="M400 1590 c-10 -6 -9 -9 4 -11 16 -4 16 -6 -2 -26 -10 -13 -23 -19
-27 -15 -5 4 -5 1 0 -6 5 -10 15 -6 41 20 18 18 34 35 34 38 0 9 -35 9 -50 0z"/>
<path d="M511 1587 c-6 -8 -7 -18 -3 -22 4 -5 -1 -5 -10 -2 -37 13 -56 -62
-25 -101 5 -7 7 -15 3 -19 -3 -3 -6 -1 -6 5 0 7 -4 12 -10 12 -6 0 -9 -3 -8
-7 3 -17 -16 -45 -36 -53 -19 -7 -35 -50 -18 -50 15 1 41 27 34 35 -4 5 -1 5
7 0 11 -6 9 -12 -10 -26 -13 -10 -28 -17 -34 -15 -5 2 -19 -4 -29 -13 -18 -15
-18 -15 -7 8 8 14 9 27 4 32 -13 13 -45 0 -36 -15 4 -6 6 -21 4 -33 -1 -13 2
-23 7 -23 5 0 4 -15 -2 -34 -7 -23 -13 -31 -19 -23 -5 7 -5 -2 -2 -20 4 -22 3
-33 -5 -33 -6 0 -9 4 -6 8 2 4 1 14 -4 22 -12 19 -29 3 -45 -43 -9 -26 -9 -38
0 -50 7 -9 14 -16 17 -14 2 1 -8 -9 -23 -23 -29 -27 -29 -18 -5 -152 4 -22 2
-28 -12 -28 -13 0 -14 2 -3 9 11 7 11 10 0 17 -7 4 -14 3 -17 -4 -2 -7 -10
-12 -17 -12 -8 0 -18 -8 -24 -17 -5 -10 -13 -15 -16 -11 -10 10 4 28 28 37 19
7 18 9 -10 13 -30 4 -32 2 -38 -35 -5 -27 -11 -37 -21 -33 -8 3 -14 0 -14 -6
0 -12 -78 -130 -93 -139 -5 -4 -8 -12 -5 -20 2 -7 17 6 34 31 16 24 53 69 81
98 44 46 55 53 68 42 12 -10 15 -10 15 4 0 10 5 14 10 11 8 -5 7 -11 -1 -21
-9 -11 -9 -17 1 -29 10 -12 9 -15 -5 -15 -9 0 -19 9 -22 20 -4 16 -9 18 -24 9
-10 -5 -19 -15 -19 -22 0 -7 -15 -28 -34 -46 -22 -21 -32 -39 -28 -49 4 -11 1
-14 -11 -9 -11 4 -14 2 -11 -7 3 -8 -8 -23 -25 -36 -17 -12 -31 -27 -31 -35 0
-13 27 7 99 73 23 22 32 35 23 39 -17 7 -5 23 13 16 22 -8 18 -33 -11 -59 -14
-13 -27 -24 -30 -24 -12 0 -42 -37 -49 -60 -4 -14 -16 -37 -26 -52 -30 -42
-22 -42 21 0 43 42 50 55 24 45 -14 -5 -15 -3 -5 15 7 12 17 22 24 22 7 0 6
-4 -3 -10 -10 -7 -11 -10 -2 -10 7 0 16 8 19 18 7 18 30 38 48 41 6 1 15 12
21 24 13 24 -1 57 -24 57 -7 0 -11 4 -7 10 3 5 12 7 20 3 8 -3 15 0 15 6 0 6
-4 11 -10 11 -5 0 -10 5 -10 10 0 7 6 8 17 1 12 -6 17 -23 18 -52 1 -23 7 -45
13 -47 19 -6 3 -22 -16 -16 -13 4 -13 3 2 -7 16 -10 21 -9 32 6 7 10 15 23 17
29 2 6 8 8 12 4 4 -4 3 -14 -3 -21 -7 -8 -9 -16 -6 -20 3 -3 -3 -10 -15 -16
-14 -8 -27 -8 -46 1 -22 10 -29 9 -47 -10 -12 -12 -18 -25 -14 -29 4 -4 16 3
27 16 10 13 19 18 19 12 0 -7 5 -9 12 -5 7 4 8 3 4 -4 -4 -7 -14 -12 -22 -12
-8 0 -14 -5 -14 -11 0 -6 7 -8 15 -5 43 17 49 17 27 1 -15 -11 -22 -24 -19
-36 6 -23 3 -24 -18 -3 -12 12 -19 13 -29 4 -12 -9 -13 -7 -9 12 5 22 5 23
-10 3 -8 -11 -16 -24 -17 -30 -3 -18 -22 -35 -32 -29 -13 8 -38 -26 -37 -51 1
-13 3 -15 5 -5 3 8 17 23 32 32 15 10 39 27 54 39 30 24 49 20 28 -6 -7 -9
-15 -13 -18 -10 -6 5 -42 -24 -42 -34 0 -4 12 -8 27 -9 39 -3 47 -16 22 -38
-20 -18 -21 -18 -18 0 2 10 -1 21 -6 23 -6 2 -11 -6 -11 -17 0 -12 10 -23 28
-29 22 -8 26 -7 21 5 -3 8 3 21 13 29 12 9 14 14 6 15 -7 0 -10 5 -7 10 3 6
-3 10 -14 10 -11 0 -23 5 -27 12 -4 6 -3 8 3 5 6 -4 30 12 53 34 33 32 39 43
29 50 -11 7 -10 9 4 9 9 0 17 7 17 15 0 14 4 17 32 19 8 1 12 -22 13 -74 0
-41 5 -81 9 -89 6 -10 5 -12 -2 -7 -17 10 -52 -12 -52 -32 0 -9 -9 -23 -20
-30 -25 -15 -27 -37 -3 -28 10 4 14 4 10 0 -4 -4 -2 -13 4 -20 11 -13 2 -34
-33 -83 -10 -13 -15 -27 -12 -32 3 -5 -3 -9 -13 -9 -24 0 -43 -19 -37 -35 3
-7 1 -16 -5 -20 -14 -8 -14 -45 -1 -45 6 0 10 6 9 12 -3 19 21 78 31 78 5 0
12 -4 15 -10 3 -5 0 -10 -7 -10 -10 0 -10 -2 1 -9 8 -5 10 -14 6 -22 -6 -11
-5 -11 4 -3 7 6 13 22 13 35 1 13 6 30 12 38 8 11 8 13 -2 7 -21 -13 -13 12
10 28 12 9 19 18 15 22 -3 3 0 13 8 20 10 10 11 22 5 43 -8 28 -7 29 15 21 13
-5 25 -7 27 -5 2 2 5 -12 5 -33 l2 -37 -10 32 c-14 47 -23 40 -16 -12 4 -25 3
-45 -2 -45 -5 0 -12 -13 -16 -30 -4 -16 -12 -33 -19 -37 -18 -11 -29 -50 -16
-58 5 -3 10 -1 10 6 0 6 8 18 17 26 10 8 12 12 6 8 -7 -3 -13 -1 -13 4 0 6 9
11 20 11 20 0 20 -1 3 -32 -9 -18 -17 -40 -18 -48 -1 -8 -6 -31 -10 -50 -5
-19 -8 -41 -6 -48 1 -8 -2 -19 -7 -25 -10 -14 -23 -47 -18 -47 11 0 44 66 37
75 -5 5 0 27 9 48 15 33 19 36 25 20 9 -21 9 -21 0 -52 -5 -18 -4 -22 5 -16 9
5 11 4 6 -4 -4 -6 -11 -9 -16 -6 -5 3 -16 -8 -25 -24 -19 -37 -19 -41 0 -41 8
0 14 3 14 8 -1 4 0 16 1 27 2 17 3 16 9 -5 7 -26 51 -42 51 -20 0 7 -8 10 -19
7 -22 -5 -21 -1 11 71 19 43 48 66 56 44 2 -7 9 -9 14 -6 7 4 8 2 4 -5 -4 -6
-11 -9 -16 -6 -10 6 -40 -5 -40 -15 0 -5 8 -7 18 -6 25 4 33 -15 14 -31 -15
-12 -14 -13 6 -3 13 6 28 10 34 8 10 -4 -14 -16 -64 -32 -25 -8 -11 -36 17
-36 14 0 25 7 28 18 4 16 5 16 6 0 1 -17 27 -18 406 -18 278 0 405 3 405 11 0
5 4 8 9 5 5 -4 7 3 4 14 -3 11 0 20 6 20 6 0 11 -10 11 -23 0 -16 6 -23 20
-23 20 0 27 11 12 18 -14 5 -22 77 -10 84 7 5 8 2 4 -7 -4 -8 0 -5 8 5 11 14
16 15 16 6 0 -9 5 -7 14 6 9 12 11 21 4 25 -16 10 22 61 41 54 8 -3 12 -3 8 1
-4 4 -2 14 5 21 9 11 9 16 0 22 -6 4 -9 17 -5 29 3 12 10 19 16 15 5 -3 7 -1
3 5 -3 6 -2 22 4 36 6 16 6 26 0 26 -5 0 -7 7 -4 15 4 8 17 15 30 15 13 0 24
4 24 10 0 5 -6 7 -13 4 -11 -4 -47 51 -47 71 0 13 19 3 23 -12 3 -10 4 -6 4 9
-1 15 -5 24 -9 22 -4 -3 -5 14 -2 38 4 24 6 73 6 110 -1 53 3 68 14 68 10 0
13 -7 9 -27 l-6 -28 14 24 c12 21 12 27 1 38 -7 7 -18 12 -25 11 -6 -2 -13 5
-14 14 -3 15 0 15 31 -3 19 -10 33 -15 33 -11 -3 20 3 32 16 32 19 0 19 2 -4
-46 -11 -22 -22 -54 -26 -70 -6 -27 -5 -27 11 6 23 51 74 191 73 204 0 6 -9
-6 -19 -28 -10 -21 -20 -33 -24 -27 -4 6 4 27 18 47 l25 37 7 -28 c4 -17 1
-48 -9 -79 -13 -42 -14 -48 -2 -32 8 11 15 26 15 34 0 7 3 11 8 9 4 -3 8 11 8
31 2 53 7 70 37 136 15 32 27 65 27 73 0 7 7 25 16 38 9 13 14 30 12 36 -5 16
-59 -64 -109 -162 -21 -44 -48 -84 -58 -91 -10 -6 -17 -18 -14 -25 3 -7 1 -13
-5 -13 -19 0 2 102 24 121 8 6 14 16 14 22 0 6 -11 0 -25 -13 -14 -13 -26 -18
-26 -12 -1 7 -2 17 -3 23 -1 7 12 13 28 15 46 5 57 24 14 24 -28 0 -37 5 -41
21 -4 16 -2 19 10 15 8 -4 1 7 -17 24 -17 16 -29 34 -25 40 4 6 1 9 -5 8 -8
-2 -14 13 -17 39 -2 24 -15 66 -29 95 -14 29 -23 46 -20 37 3 -12 0 -15 -15
-12 -19 5 -27 23 -10 23 13 0 21 27 14 46 -4 11 -13 14 -29 10 -29 -8 -32 2
-5 12 19 7 19 8 -4 18 -19 9 -22 9 -18 -2 3 -8 0 -14 -7 -14 -10 0 -10 -3 0
-15 6 -8 22 -13 33 -12 14 1 22 -4 22 -13 0 -10 -11 -15 -32 -16 -18 -1 -30 3
-27 8 3 4 -4 8 -14 8 -24 0 -48 25 -32 35 5 3 10 1 10 -5 0 -6 5 -8 10 -5 6 4
2 18 -11 36 -12 17 -18 33 -15 37 4 3 11 1 15 -7 7 -10 10 -9 14 3 4 9 2 16
-3 16 -6 0 -10 10 -9 23 0 16 25 40 94 91 89 66 116 94 63 65 -12 -7 -28 -12
-34 -11 -16 3 -160 -63 -169 -78 -4 -7 4 -6 22 4 16 8 56 26 89 41 l59 25 -40
-35 c-22 -19 -58 -47 -80 -62 -22 -16 -41 -31 -43 -35 -2 -5 -10 -8 -18 -8 -9
0 -13 -4 -10 -8 2 -4 -5 -9 -17 -9 -13 -1 -17 1 -10 5 16 10 12 44 -7 60 -12
10 -10 10 13 1 15 -7 27 -19 27 -28 0 -11 3 -12 11 -4 15 15 3 32 -28 44 -18
7 -23 14 -18 28 4 14 0 21 -14 26 -11 3 -23 14 -26 25 -3 10 -12 21 -20 24
-22 8 -45 -4 -38 -20 3 -8 9 -11 14 -8 5 3 6 11 3 17 -4 8 -2 7 7 -1 10 -9 11
-15 3 -20 -7 -4 -13 -16 -16 -27 -3 -15 -11 -20 -38 -20 -31 0 -35 3 -35 28
-1 19 3 26 12 23 15 -6 17 3 4 23 -15 24 -44 5 -37 -24 4 -15 2 -25 -4 -25 -6
0 -8 -4 -5 -10 10 -16 -11 -12 -25 5 -7 8 -16 13 -19 10 -4 -2 -8 2 -8 10 0 8
4 15 9 15 4 0 8 -4 8 -10 0 -21 28 -9 32 15 5 25 -7 35 -15 13 -3 -10 -10 -10
-31 2 -21 11 -31 11 -45 3 -14 -9 -22 -9 -32 0 -10 9 -10 8 1 -6 7 -10 19 -16
26 -13 8 3 11 0 7 -10 -7 -18 -11 -18 -29 1 -11 11 -21 12 -33 5 -18 -9 -31
-4 -31 11 0 4 10 9 23 12 12 2 -10 4 -50 3 -39 -1 -74 -4 -78 -8 -4 -3 -2 -16
5 -27 8 -16 17 -20 35 -15 15 4 25 2 25 -5 0 -6 -8 -8 -17 -4 -16 6 -17 5 -3
-13 13 -17 13 -18 0 -7 -15 11 -20 13 -39 13 -11 0 -26 39 -23 58 3 15 -10 16
-25 1 -9 -9 -9 -16 -1 -29 9 -14 7 -25 -10 -51 l-21 -33 1 32 c1 20 6 32 15
32 8 0 11 5 8 11 -4 6 -13 8 -21 5 -8 -3 -11 0 -7 10 3 7 9 14 14 14 5 0 9 5
9 10 0 15 -26 12 -39 -3z m139 -18 c0 -5 -7 -9 -15 -9 -9 0 -12 6 -9 15 6 15
24 11 24 -6z m40 16 c0 -2 -7 -8 -15 -15 -12 -10 -15 -10 -15 2 0 8 7 15 15
15 8 0 15 -1 15 -2z m-205 -54 c-3 -12 -10 -21 -15 -21 -4 0 -3 11 3 24 14 29
22 27 12 -3z m345 14 c0 -8 5 -15 12 -15 6 0 9 -2 6 -5 -3 -3 -13 -3 -22 1
-17 7 -22 34 -6 34 6 0 10 -7 10 -15z m220 -18 c0 -18 -2 -19 -10 -7 -13 20
-13 43 0 35 6 -3 10 -16 10 -28z m-305 13 c3 -6 -1 -7 -9 -4 -18 7 -21 14 -7
14 6 0 13 -4 16 -10z m330 -10 c3 -5 1 -10 -4 -10 -6 0 -11 5 -11 10 0 6 2 10
4 10 3 0 8 -4 11 -10z m-384 -37 c13 -16 12 -17 -3 -4 -10 7 -18 15 -18 17 0
8 8 3 21 -13z m-177 -9 c3 -8 2 -13 -3 -9 -5 3 -11 0 -13 -7 -3 -7 -7 -5 -11
6 -4 10 -3 15 3 11 6 -3 10 -1 10 4 0 16 7 13 14 -5z m126 6 c0 -5 -4 -10 -9
-10 -5 0 -11 -9 -14 -20 -6 -25 11 -26 72 -4 24 8 46 12 49 9 3 -3 0 -5 -7 -5
-7 0 -9 -5 -6 -11 5 -6 12 -4 20 8 11 15 15 15 29 4 11 -10 16 -10 16 -2 0 7
5 9 10 6 6 -4 8 -12 4 -18 -3 -7 2 -3 11 8 9 11 20 21 25 21 6 1 11 2 13 4 17
14 137 -17 122 -32 -3 -3 6 -4 19 -3 14 2 24 0 23 -3 -1 -4 1 -7 4 -7 7 0 102
-76 111 -89 4 -6 11 -7 15 -2 4 4 -4 18 -19 29 l-26 22 23 18 c29 21 35 21 35
2 0 -8 -7 -15 -16 -15 -12 0 -11 -5 7 -19 22 -18 23 -21 7 -37 -15 -15 -14
-20 16 -63 18 -25 31 -54 29 -63 -3 -10 1 -18 7 -18 17 0 40 -26 40 -45 0 -9
-5 -13 -10 -10 -6 4 -8 11 -5 16 3 5 -1 6 -9 3 -19 -7 -20 -2 5 -53 11 -24 18
-49 15 -56 -3 -8 0 -15 6 -17 6 -2 12 -11 14 -19 1 -7 9 -54 17 -104 26 -150
28 -182 12 -195 -18 -15 -19 -36 -3 -46 8 -5 9 -2 5 9 -3 9 -2 19 3 22 6 4 10
-5 10 -19 0 -14 -5 -26 -11 -26 -6 0 -8 -9 -4 -20 4 -12 2 -20 -5 -20 -8 0
-10 10 -8 24 5 27 -8 37 -45 35 -12 0 -16 -3 -9 -6 15 -6 6 -23 -14 -23 -8 0
-14 8 -15 18 -1 11 -4 9 -9 -8 -6 -18 -8 -20 -9 -7 -1 10 -5 15 -11 12 -5 -3
-10 -1 -10 4 0 6 5 11 10 11 6 0 10 5 10 11 0 5 -4 8 -9 4 -5 -3 -12 -1 -16 5
-4 6 -12 7 -22 1 -17 -9 -29 -93 -17 -120 13 -30 14 -50 2 -57 -7 -4 -8 -3 -4
4 4 7 3 12 -3 12 -5 0 -11 -6 -14 -12 -3 -7 -8 10 -12 38 -6 42 -13 56 -43 79
-19 16 -32 23 -28 17 4 -7 2 -12 -4 -12 -6 0 -8 -4 -5 -10 3 -5 1 -10 -5 -10
-6 0 -8 10 -5 23 5 18 0 25 -27 36 -18 8 -37 17 -42 19 -5 3 -6 0 -2 -6 3 -6
2 -13 -4 -17 -5 -3 -10 1 -10 10 0 8 7 18 15 21 10 4 12 10 7 18 -10 13 10 70
21 60 4 -4 7 -3 7 2 0 5 -8 14 -17 20 -15 9 -18 7 -19 -13 -2 -33 -7 -36 -56
-39 -24 -1 -58 -7 -75 -12 -22 -7 -33 -7 -33 -1 0 6 -4 7 -10 4 -5 -3 -10 -1
-10 5 0 8 -12 10 -38 5 -29 -5 -42 -2 -52 9 -17 22 -6 68 25 102 14 15 22 30
19 33 -3 3 -13 -4 -21 -16 -9 -13 -20 -23 -25 -23 -5 0 4 16 19 35 19 24 30
31 36 22 5 -7 6 -4 3 9 -4 14 1 27 15 40 22 20 54 74 43 74 -3 0 -14 -10 -25
-22 -10 -13 -18 -18 -19 -12 0 7 -8 15 -17 19 -15 5 -16 4 -5 -6 6 -7 12 -22
12 -33 0 -18 -1 -18 -20 -1 -26 23 -108 31 -165 15 -54 -15 -67 -29 -26 -28
17 1 28 5 25 10 -9 14 123 14 138 0 4 -4 -13 -5 -37 -4 -31 3 -58 -3 -88 -17
-24 -12 -47 -21 -52 -21 -12 0 -55 -41 -55 -53 0 -5 7 -4 15 3 8 7 22 10 30 6
9 -3 13 -2 10 4 -3 6 -3 10 2 10 4 0 19 3 32 7 17 4 22 3 17 -6 -6 -8 -1 -8
18 0 14 7 23 16 20 20 -3 5 5 9 18 9 22 -1 22 -1 -5 -18 -15 -9 -25 -22 -23
-28 3 -8 -16 -14 -52 -19 -40 -5 -51 -10 -37 -15 10 -3 46 -1 79 6 69 14 91 6
79 -30 -10 -30 -5 -66 12 -92 13 -20 12 -24 -1 -35 -13 -10 -17 -10 -23 0 -6
10 -10 9 -14 -3 -4 -9 -2 -16 4 -16 20 0 -1 -18 -28 -25 -41 -10 -80 -52 -98
-106 -9 -26 -23 -53 -31 -60 -13 -10 -12 -5 2 31 14 34 15 46 5 61 -9 15 -8
27 4 55 19 46 19 53 -1 28 -14 -17 -15 -17 -10 -1 3 11 2 16 -4 12 -6 -3 -10
-17 -10 -30 0 -12 -7 -25 -15 -29 -19 -7 -19 -4 6 49 12 25 24 43 28 40 4 -2
8 2 8 10 0 12 -3 12 -16 2 -12 -10 -14 -9 -8 6 4 11 3 16 -3 12 -6 -3 -10 2
-10 11 0 23 -6 15 -14 -20 -6 -23 -4 -27 8 -23 9 4 16 4 16 2 0 -9 -35 -45
-43 -45 -5 0 -4 7 3 15 7 9 10 19 6 22 -4 4 -11 1 -16 -7 -7 -11 -9 -10 -7 7
0 12 5 19 11 16 5 -4 7 1 3 10 -3 9 -1 18 6 20 7 2 9 8 5 12 -4 4 -14 3 -21
-3 -8 -7 -17 -9 -21 -5 -4 4 -4 0 0 -10 5 -13 2 -16 -9 -11 -9 3 -18 13 -20
22 -3 10 -5 5 -6 -10 -1 -31 -20 -49 -22 -21 -6 89 39 293 84 380 19 38 37 85
40 105 9 61 34 101 108 176 39 40 68 72 64 72 -8 0 18 29 28 30 4 0 7 -4 7
-10z m130 0 c0 -5 -2 -10 -4 -10 -3 0 -8 5 -11 10 -3 6 -1 10 4 10 6 0 11 -4
11 -10z m300 -40 c0 -5 -7 -7 -15 -4 -8 4 -15 8 -15 10 0 2 7 4 15 4 8 0 15
-4 15 -10z m-578 -69 c-15 -16 -18 -17 -29 -3 -7 9 -10 18 -7 21 3 3 9 -1 14
-9 8 -12 10 -12 16 3 3 9 10 14 15 12 4 -3 1 -14 -9 -24z m-98 -66 c-4 -8 -10
-15 -15 -15 -4 0 -6 7 -3 15 4 8 10 15 15 15 4 0 6 -7 3 -15z m36 1 c0 -3 -4
-8 -10 -11 -5 -3 -10 -1 -10 4 0 6 5 11 10 11 6 0 10 -2 10 -4z m-125 -156
c-3 -5 -12 -10 -18 -10 -7 0 -6 4 3 10 19 12 23 12 15 0z m975 -15 c7 -9 8
-15 2 -15 -5 0 -12 7 -16 15 -3 8 -4 15 -2 15 2 0 9 -7 16 -15z m60 -29 c0 -3
-4 -8 -10 -11 -5 -3 -10 -1 -10 4 0 6 5 11 10 11 6 0 10 -2 10 -4z m-1015 -16
c-3 -5 -12 -10 -18 -10 -7 0 -6 4 3 10 19 12 23 12 15 0z m-38 -99 c10 -16 9
-22 -4 -33 -15 -11 -16 -11 -10 6 4 10 2 25 -4 32 -6 8 -7 14 -3 14 5 0 15 -9
21 -19z m1240 -55 c-14 -31 -30 -56 -35 -56 -5 0 5 27 22 59 38 74 47 72 13
-3z m-837 13 c0 -4 -14 -17 -31 -29 -19 -14 -28 -28 -24 -38 4 -12 3 -12 -9
-3 -7 6 -21 9 -30 5 -32 -12 -15 6 24 26 38 19 56 38 25 27 -8 -4 -17 -1 -21
5 -4 6 -3 8 4 4 6 -3 13 -3 16 2 6 10 46 10 46 1z m710 -69 c0 -5 -2 -10 -4
-10 -3 0 -8 5 -11 10 -3 6 -1 10 4 10 6 0 11 -4 11 -10z m-1160 -24 c0 -3 -4
-8 -10 -11 -5 -3 -10 -1 -10 4 0 6 5 11 10 11 6 0 10 -2 10 -4z m1137 -2 c-3
-3 -12 -4 -19 -1 -8 3 -5 6 6 6 11 1 17 -2 13 -5z m-1107 -24 c0 -5 -2 -10 -4
-10 -3 0 -8 5 -11 10 -3 6 -1 10 4 10 6 0 11 -4 11 -10z m1104 -12 c-3 -4 0
-8 7 -8 9 0 9 -3 0 -14 -13 -15 4 -26 40 -26 10 0 19 -4 19 -10 0 -12 -40 -13
-56 -2 -6 4 -17 21 -25 37 -14 28 -14 31 2 31 10 0 15 -4 13 -8z m-1161 -49
c-4 -15 -8 -17 -14 -8 -8 14 -3 29 11 29 4 0 6 -9 3 -21z m147 -59 c0 -5 -5
-10 -11 -10 -5 0 -7 5 -4 10 3 6 8 10 11 10 2 0 4 -4 4 -10z m420 -4 c0 -3 -4
-8 -10 -11 -5 -3 -10 -1 -10 4 0 6 5 11 10 11 6 0 10 -2 10 -4z m-430 -48 c0
-5 -5 -8 -11 -8 -5 0 -7 5 -4 10 10 16 -11 12 -25 -5 -7 -8 -17 -15 -22 -15
-5 0 3 11 19 24 26 22 42 20 43 -6z m432 10 c-7 -7 -12 -8 -12 -2 0 14 12 26
19 19 2 -3 -1 -11 -7 -17z m380 -46 c6 -7 8 -15 5 -18 -10 -11 -39 57 -31 74
6 13 9 10 12 -13 2 -16 9 -36 14 -43z m-365 29 c6 6 19 6 34 1 22 -9 21 -10
-18 -16 -23 -4 -51 -5 -62 -1 -11 3 -22 1 -26 -5 -4 -6 11 -10 40 -10 28 0 44
-4 40 -10 -3 -5 -1 -10 4 -10 6 0 11 7 11 16 0 13 3 14 15 4 8 -7 22 -10 30
-6 8 3 15 1 15 -4 0 -5 7 -7 15 -4 8 4 15 1 15 -6 0 -6 5 -8 10 -5 6 4 7 12 3
18 -4 7 1 6 11 -2 16 -13 16 -15 1 -24 -10 -5 -27 -5 -44 3 -16 6 -49 9 -75 6
-30 -4 -45 -2 -41 4 7 11 -53 4 -93 -11 -13 -5 -28 -7 -33 -3 -5 3 -9 -3 -9
-12 0 -10 -3 -14 -7 -11 -3 4 -12 2 -20 -4 -8 -8 -13 -8 -13 -1 0 6 18 25 40
42 22 17 40 27 40 21 0 -6 -4 -11 -10 -11 -5 0 -10 -4 -10 -9 0 -5 9 -7 21 -4
12 4 18 11 15 20 -8 19 52 45 75 33 9 -6 20 -5 26 1z m473 -1 c0 -5 -2 -10 -4
-10 -3 0 -8 5 -11 10 -3 6 -1 10 4 10 6 0 11 -4 11 -10z m-915 -20 c-3 -5 -12
-10 -18 -10 -7 0 -6 4 3 10 19 12 23 12 15 0z m672 -12 c-3 -8 -6 -5 -6 6 -1
11 2 17 5 13 3 -3 4 -12 1 -19z m187 -22 c3 -20 0 -24 -9 -16 -7 6 -11 20 -8
31 7 25 14 19 17 -15z m49 4 c3 -11 3 -20 1 -20 -2 0 -8 9 -14 20 -6 11 -7 20
-2 20 6 0 12 -9 15 -20z m-113 -25 c0 -5 -5 -3 -10 5 -5 8 -10 20 -10 25 0 6
5 3 10 -5 5 -8 10 -19 10 -25z m-790 15 c0 -5 -2 -10 -4 -10 -3 0 -8 5 -11 10
-3 6 -1 10 4 10 6 0 11 -4 11 -10z m63 -5 c-3 -9 -8 -14 -10 -11 -3 3 -2 9 2
15 9 16 15 13 8 -4z m557 -17 c0 -5 -4 -8 -10 -8 -5 0 -10 10 -10 23 0 18 2
19 10 7 5 -8 10 -18 10 -22z m-114 -1 c8 -8 -5 -9 -94 -9 -48 0 -62 -4 -58
-14 3 -7 0 -15 -7 -17 -7 -2 -9 -8 -5 -12 5 -5 16 -1 26 8 9 9 26 14 37 12 11
-2 23 -4 28 -4 4 -1 7 -5 7 -10 0 -6 -9 -8 -20 -6 -11 2 -25 -2 -32 -8 -7 -7
-24 -13 -38 -14 -74 -4 -129 -11 -141 -18 -12 -8 -12 -6 0 8 12 15 11 17 -5
18 -11 0 -13 3 -7 6 7 2 15 3 17 1 3 -2 12 6 21 17 12 15 18 16 22 7 3 -9 12
-5 28 13 26 27 57 37 35 10 -7 -8 -16 -12 -21 -9 -5 3 -9 -2 -9 -11 0 -12 5
-15 16 -11 9 3 20 6 25 6 5 0 9 9 9 19 0 11 5 21 10 23 19 6 149 2 156 -5z
m54 -7 c18 -12 2 -12 -25 0 -13 6 -15 9 -5 9 8 0 22 -4 30 -9z m254 -5 c3 -8
1 -15 -4 -15 -6 0 -10 7 -10 15 0 8 2 15 4 15 2 0 6 -7 10 -15z m-194 -26 c0
-5 6 -9 14 -9 15 0 43 -57 32 -67 -3 -3 -6 -1 -6 5 0 16 -30 43 -42 36 -5 -3
-7 -17 -3 -31 4 -16 2 -22 -5 -18 -5 3 -10 12 -10 19 0 8 -8 20 -17 27 -15 12
-16 12 -10 -5 6 -16 5 -17 -7 -7 -8 7 -33 13 -55 14 -39 1 -58 17 -45 38 7 12
24 11 24 -2 0 -5 -4 -7 -10 -4 -5 3 -10 1 -10 -5 0 -8 7 -9 18 -5 9 4 26 8 37
9 11 0 23 6 27 11 5 6 8 5 8 -2 0 -7 5 -13 10 -13 6 0 10 6 10 14 0 9 7 12 20
9 11 -3 20 -9 20 -14z m194 -33 c9 -14 12 -27 8 -30 -5 -3 -13 8 -19 25 -14
35 -10 37 11 5z m-686 -21 c-6 -14 -13 -23 -15 -21 -5 5 15 46 22 46 3 0 -1
-11 -7 -25z m-241 -25 c-17 -28 -29 -25 -15 5 6 13 15 22 19 19 5 -3 3 -14 -4
-24z m873 -2 c0 -19 -16 -5 -17 14 -2 18 0 20 7 8 5 -8 10 -18 10 -22z m143
17 c-3 -9 -8 -14 -10 -11 -3 3 -2 9 2 15 9 16 15 13 8 -4z m-713 -15 c0 -5 -2
-10 -4 -10 -3 0 -8 5 -11 10 -3 6 -1 10 4 10 6 0 11 -4 11 -10z m120 6 c0 -2
-8 -10 -17 -17 -16 -13 -17 -12 -4 4 13 16 21 21 21 13z m268 -27 c-3 -8 -7
-3 -11 10 -4 17 -3 21 5 13 5 -5 8 -16 6 -23z m-358 -3 c0 -3 -4 -8 -10 -11
-5 -3 -10 -1 -10 4 0 6 5 11 10 11 6 0 10 -2 10 -4z m-75 -16 c3 -5 1 -10 -4
-10 -6 0 -11 5 -11 10 0 6 2 10 4 10 3 0 8 -4 11 -10z m529 -16 c3 -8 2 -12
-4 -9 -6 3 -10 10 -10 16 0 14 7 11 14 -7z m-207 -26 c-3 -8 -6 -5 -6 6 -1 11
2 17 5 13 3 -3 4 -12 1 -19z m-557 -76 c0 -4 -6 -14 -12 -21 -11 -12 -9 -13 7
-7 11 4 16 4 12 0 -4 -4 1 -13 11 -21 15 -13 15 -13 -8 -7 -33 9 -52 35 -38
51 12 15 28 17 28 5z m10 -78 c0 -9 5 -12 12 -8 7 4 8 3 4 -5 -4 -6 -11 -9
-16 -6 -5 3 -14 -4 -20 -15 -15 -27 -33 -26 -24 3 13 42 44 65 44 31z m24 -50
c4 -11 2 -15 -8 -11 -9 4 -12 0 -9 -13 3 -10 0 -21 -6 -24 -7 -5 -8 -1 -5 9 5
11 2 14 -10 9 -24 -9 -19 12 6 30 27 19 25 19 32 0z m36 -19 c0 -5 -5 -3 -10
5 -5 8 -10 20 -10 25 0 6 5 3 10 -5 5 -8 10 -19 10 -25z"/>
<path d="M596 1414 c-30 -29 -19 -33 14 -4 13 11 18 20 12 20 -6 0 -18 -7 -26
-16z"/>
<path d="M591 1381 c-10 -7 -7 -9 12 -8 14 1 23 5 20 10 -6 9 -15 9 -32 -2z"/>
<path d="M690 1360 c0 -5 5 -10 11 -10 5 0 7 5 4 10 -3 6 -8 10 -11 10 -2 0
-4 -4 -4 -10z"/>
<path d="M750 1340 c-9 -6 -10 -10 -3 -10 6 0 15 5 18 10 8 12 4 12 -15 0z"/>
<path d="M695 1320 c3 -5 8 -10 11 -10 2 0 4 5 4 10 0 6 -5 10 -11 10 -5 0 -7
-4 -4 -10z"/>
<path d="M611 1299 c-13 -5 -22 -11 -20 -14 8 -7 49 7 49 16 0 5 -1 9 -2 8 -2
0 -14 -5 -27 -10z"/>
<path d="M655 1210 c-3 -5 -1 -10 4 -10 6 0 11 5 11 10 0 6 -2 10 -4 10 -3 0
-8 -4 -11 -10z"/>
<path d="M936 1206 c3 -9 11 -16 16 -16 13 0 5 23 -10 28 -7 2 -10 -2 -6 -12z"/>
<path d="M855 1190 c3 -5 11 -10 16 -10 6 0 7 5 4 10 -3 6 -11 10 -16 10 -6 0
-7 -4 -4 -10z"/>
<path d="M1000 1190 c0 -5 5 -10 11 -10 5 0 7 5 4 10 -3 6 -8 10 -11 10 -2 0
-4 -4 -4 -10z"/>
<path d="M506 1165 c-11 -8 -15 -15 -9 -15 6 0 16 7 23 15 16 19 11 19 -14 0z"/>
<path d="M599 1170 c-9 -5 -26 -8 -38 -5 -12 2 -19 0 -16 -5 6 -9 61 -7 71 3
12 12 0 16 -17 7z"/>
<path d="M820 1180 c-8 -26 -6 -46 6 -65 8 -12 11 -24 8 -27 -8 -9 34 -30 46
-23 5 3 11 1 15 -5 9 -14 53 -12 131 6 59 13 70 13 79 1 5 -8 18 -13 28 -11
11 1 21 -6 26 -19 15 -38 71 -79 71 -52 0 11 -5 15 -14 12 -8 -3 -17 0 -20 8
-3 10 0 12 11 8 14 -5 13 -1 -4 23 -42 59 -58 66 -156 67 -21 0 -25 2 -15 9 8
6 -3 8 -35 5 -31 -3 -50 0 -55 8 -10 17 -52 29 -52 16 0 -6 8 -11 17 -11 9 0
14 -3 10 -6 -10 -10 -49 7 -44 20 3 7 -4 18 -15 25 -17 11 -18 10 -9 -8 13
-24 14 -31 2 -31 -5 0 -14 12 -19 28 -6 15 -11 25 -12 22z m103 -85 c-3 -9 -8
-14 -10 -11 -3 3 -2 9 2 15 9 16 15 13 8 -4z"/>
<path d="M638 1153 c7 -3 16 -2 19 1 4 3 -2 6 -13 5 -11 0 -14 -3 -6 -6z"/>
<path d="M735 1150 c3 -5 8 -10 11 -10 2 0 4 5 4 10 0 6 -5 10 -11 10 -5 0 -7
-4 -4 -10z"/>
<path d="M707 1142 c9 -6 6 -11 -8 -21 -16 -9 -19 -10 -13 0 5 8 2 11 -8 7 -8
-4 -21 -2 -28 2 -7 5 -22 3 -33 -3 -15 -9 -21 -9 -24 0 -4 11 -76 8 -97 -4 -5
-3 -6 -1 -2 5 10 17 -3 15 -20 -2 -7 -8 -17 -16 -22 -18 -14 -6 -72 -101 -72
-120 0 -16 2 -16 23 5 12 12 21 26 19 30 -1 4 5 10 13 13 8 3 12 11 8 17 -4 6
2 8 15 5 12 -4 25 -1 29 4 4 7 1 8 -7 3 -9 -6 -11 -4 -6 4 5 7 14 10 21 7 8
-3 15 0 17 5 2 6 20 3 43 -7 22 -9 64 -18 93 -20 29 -2 56 -6 61 -9 5 -3 12 4
16 15 3 11 11 20 17 20 6 0 17 8 24 18 12 16 13 16 20 -3 4 -11 21 -30 36 -43
15 -13 28 -29 28 -35 1 -17 110 -205 110 -189 0 7 -10 32 -22 55 -13 23 -23
47 -23 52 0 6 -4 16 -8 23 -11 17 17 16 52 -3 16 -8 31 -11 35 -8 3 4 6 2 6
-4 0 -16 -31 -25 -45 -13 -7 6 -16 7 -19 2 -3 -5 14 -18 37 -30 38 -20 40 -23
20 -28 -13 -4 -23 -10 -23 -14 0 -4 23 -1 52 6 29 8 61 14 71 14 10 0 28 5 40
12 12 6 33 12 46 12 13 1 26 7 29 14 2 7 -2 13 -9 11 -29 -3 -40 2 -48 24 -9
22 -31 38 -85 57 -25 9 -27 12 -15 28 13 15 12 16 -4 3 -13 -10 -15 -17 -6
-27 7 -9 7 -14 1 -14 -5 0 -17 10 -26 23 -9 12 -14 16 -10 8 5 -10 1 -11 -14
-7 -22 7 -82 -18 -82 -34 0 -22 -21 -8 -37 24 -9 19 -26 40 -39 47 -18 9 -21
15 -13 26 9 10 8 13 -3 13 -8 0 -24 9 -36 20 -20 18 -22 19 -22 4 0 -15 -3
-15 -23 4 -13 12 -27 22 -33 22 -5 0 -4 -4 3 -8z m33 -37 c0 -2 -9 -3 -19 -2
-11 0 -18 5 -15 9 4 6 34 0 34 -7z m240 -125 c0 -5 -7 -10 -16 -10 -8 0 -12 5
-9 10 3 6 10 10 16 10 5 0 9 -4 9 -10z m150 -20 c8 -5 10 -10 4 -10 -7 0 -22
9 -35 21 -19 16 -20 18 -4 10 11 -6 27 -15 35 -21z m-80 10 c0 -5 -5 -10 -11
-10 -5 0 -7 5 -4 10 3 6 8 10 11 10 2 0 4 -4 4 -10z m30 -10 c0 -5 -5 -10 -11
-10 -5 0 -7 5 -4 10 3 6 8 10 11 10 2 0 4 -4 4 -10z m-3 -29 c10 2 29 -1 42
-5 18 -6 21 -10 10 -17 -17 -11 -106 -11 -134 0 -17 7 -17 8 8 15 15 3 27 11
27 17 0 8 4 8 14 -1 8 -6 23 -10 33 -9z"/>
<path d="M1028 913 c7 -3 16 -2 19 1 4 3 -2 6 -13 5 -11 0 -14 -3 -6 -6z"/>
<path d="M1088 1113 c6 -2 18 -2 25 0 6 3 1 5 -13 5 -14 0 -19 -2 -12 -5z"/>
<path d="M887 1015 c3 -8 9 -12 14 -9 12 7 11 11 -5 17 -10 4 -13 1 -9 -8z"/>
<path d="M1237 1023 c-3 -5 1 -19 9 -33 l14 -25 -6 30 c-8 35 -10 39 -17 28z"/>
<path d="M705 849 c-12 -6 -27 -20 -34 -31 -11 -18 -11 -20 4 -14 9 3 23 -1
32 -10 14 -13 17 -13 30 6 15 22 14 52 -2 56 -5 1 -19 -2 -30 -7z"/>
<path d="M814 835 c-10 -26 22 -47 61 -39 l36 6 -22 24 c-25 27 -67 32 -75 9z"/>
<path d="M535 800 c3 -5 8 -10 11 -10 2 0 4 5 4 10 0 6 -5 10 -11 10 -5 0 -7
-4 -4 -10z"/>
<path d="M960 765 c1 -21 17 -43 69 -90 24 -22 31 -24 23 -10 -5 11 -20 29
-33 40 -12 11 -30 34 -40 50 -15 24 -19 26 -19 10z"/>
<path d="M1210 721 c0 -11 31 -24 38 -16 3 3 0 5 -7 5 -7 0 -9 5 -6 10 3 6 -1
10 -9 10 -9 0 -16 -4 -16 -9z"/>
<path d="M1095 699 c-4 -6 -5 -12 -2 -15 2 -3 7 2 10 11 7 17 1 20 -8 4z"/>
<path d="M955 1590 c3 -5 8 -10 11 -10 2 0 4 5 4 10 0 6 -5 10 -11 10 -5 0 -7
-4 -4 -10z"/>
<path d="M1512 1588 c-7 -7 -12 -19 -12 -27 0 -11 5 -8 16 7 18 25 15 39 -4
20z"/>
<path d="M1546 1588 c-14 -45 -20 -77 -18 -108 1 -30 0 -32 -7 -10 l-7 25 -7
-25 c-4 -14 -7 -32 -7 -40 0 -13 1 -13 10 0 11 17 13 5 11 -55 -1 -25 1 -27 8
-10 5 11 9 45 10 76 0 31 8 75 16 99 8 23 15 46 15 51 0 14 -20 11 -24 -3z"/>
<path d="M964 1556 c-3 -9 -14 -16 -23 -17 -12 0 -12 -2 4 -9 32 -14 45 -11
45 9 0 26 -18 37 -26 17z"/>
<path d="M1332 1535 c-6 -14 -7 -25 -2 -25 9 0 25 39 18 46 -3 2 -10 -7 -16
-21z"/>
<path d="M352 1465 c-7 -22 -15 -47 -18 -55 -3 -8 5 2 16 23 12 21 20 46 18
55 -2 10 -9 0 -16 -23z"/>
<path d="M400 1475 c-7 -8 -9 -15 -6 -15 4 0 14 7 22 15 9 8 11 15 6 15 -5 0
-15 -7 -22 -15z"/>
<path d="M420 1449 c0 -5 5 -7 10 -4 6 3 10 8 10 11 0 2 -4 4 -10 4 -5 0 -10
-5 -10 -11z"/>
<path d="M1306 1443 c-6 -14 -5 -15 5 -6 7 7 10 15 7 18 -3 3 -9 -2 -12 -12z"/>
<path d="M400 1419 c0 -5 5 -7 10 -4 6 3 10 8 10 11 0 2 -4 4 -10 4 -5 0 -10
-5 -10 -11z"/>
<path d="M1474 1354 c-12 -29 -18 -51 -13 -49 9 6 43 94 38 99 -2 2 -13 -20
-25 -50z"/>
<path d="M350 1396 c0 -2 7 -6 15 -10 8 -3 15 -1 15 4 0 6 -7 10 -15 10 -8 0
-15 -2 -15 -4z"/>
<path d="M1572 1335 c-7 -14 -12 -31 -12 -38 1 -7 7 3 16 22 17 39 13 54 -4
16z"/>
<path d="M291 1299 c-11 -19 -11 -21 4 -15 9 3 19 6 21 6 2 0 4 7 4 15 0 21
-13 19 -29 -6z"/>
<path d="M1436 1275 c-9 -26 -7 -32 5 -12 6 10 9 21 6 23 -2 3 -7 -2 -11 -11z"/>
<path d="M1558 1173 c-63 -52 -128 -116 -128 -127 0 -5 14 3 30 19 20 19 30
24 30 14 1 -11 3 -10 13 3 7 9 33 25 57 34 24 10 39 19 33 21 -7 3 -26 -3 -43
-12 -50 -26 -47 -10 4 26 25 18 46 36 46 41 0 13 -6 10 -42 -19z m-48 -67 c0
-3 -4 -8 -10 -11 -5 -3 -10 -1 -10 4 0 6 5 11 10 11 6 0 10 -2 10 -4z"/>
<path d="M210 1088 c-12 -22 -12 -22 6 -6 10 10 15 20 12 24 -4 3 -12 -5 -18
-18z"/>
<path d="M108 1063 c7 -3 16 -2 19 1 4 3 -2 6 -13 5 -11 0 -14 -3 -6 -6z"/>
<path d="M171 1024 c-17 -38 -6 -42 14 -5 8 17 12 31 7 31 -5 0 -14 -12 -21
-26z"/>
<path d="M1514 1035 c-10 -8 -14 -15 -8 -15 6 0 17 7 24 15 16 19 9 19 -16 0z"/>
<path d="M1467 1023 c-4 -3 -7 -11 -7 -17 0 -6 5 -5 12 2 6 6 9 14 7 17 -3 3
-9 2 -12 -2z"/>
<path d="M117 992 c1 -8 3 -18 3 -23 0 -6 5 -7 10 -4 6 3 10 13 10 21 0 8 -4
13 -9 10 -5 -4 -11 -3 -14 1 -2 5 -2 2 0 -5z"/>
<path d="M193 976 c-31 -15 -29 -25 4 -22 15 2 27 10 29 20 3 18 -1 18 -33 2z"/>
<path d="M1575 951 c-9 -22 -24 -42 -31 -45 -8 -3 -14 -11 -14 -17 0 -9 3 -9
14 0 11 10 13 3 10 -36 l-4 -48 14 55 c8 30 19 70 26 88 18 47 6 50 -15 3z"/>
<path d="M96 954 c-5 -13 -9 -14 -21 -4 -10 9 -15 9 -15 1 0 -6 5 -11 12 -11
6 0 1 -12 -13 -27 -17 -19 -19 -24 -7 -20 9 3 19 2 22 -4 2 -5 3 -4 2 3 -2 7
6 26 17 41 10 16 17 30 14 33 -2 3 -7 -3 -11 -12z"/>
<path d="M105 930 c-3 -5 -1 -10 4 -10 6 0 11 5 11 10 0 6 -2 10 -4 10 -3 0
-8 -4 -11 -10z"/>
<path d="M10 901 c-6 -13 -7 -22 0 -26 6 -4 6 -15 0 -31 -13 -33 -13 -44 1
-44 6 0 9 6 6 13 -2 6 -1 21 3 32 4 11 3 26 -2 33 -7 8 -7 12 0 12 5 0 12 7
16 15 8 22 -12 18 -24 -4z"/>
<path d="M90 798 c-12 -22 -12 -22 6 -6 10 10 15 20 12 24 -4 3 -12 -5 -18
-18z"/>
<path d="M1537 760 c-4 -14 -6 -38 -6 -55 1 -27 2 -26 10 10 11 45 7 85 -4 45z"/>
<path d="M233 655 c-7 -8 -9 -16 -4 -19 5 -3 12 1 15 10 8 22 4 25 -11 9z"/>
<path d="M11 631 c-7 -5 -11 -15 -9 -22 3 -10 8 -7 17 9 13 24 12 26 -8 13z"/>
<path d="M210 593 c0 -4 -15 -15 -32 -23 -25 -11 -28 -15 -15 -18 9 -2 15 -8
12 -13 -4 -5 -2 -9 3 -9 5 0 15 11 22 25 13 24 14 24 33 8 19 -17 20 -17 8 4
-12 24 -31 39 -31 26z"/>
<path d="M194 525 l-21 -22 24 0 c23 0 48 28 36 41 -9 9 -16 6 -39 -19z m29 0
c-3 -9 -8 -14 -10 -11 -3 3 -2 9 2 15 9 16 15 13 8 -4z"/>
<path d="M46 521 c-4 -5 0 -12 6 -14 9 -4 7 -6 -3 -6 -16 -1 -49 -31 -49 -44
0 -4 6 -7 13 -7 16 0 57 42 57 58 0 15 -17 24 -24 13z"/>
<path d="M181 469 c-10 -18 -15 -19 -22 -8 -7 11 -9 11 -9 -3 0 -11 -8 -18
-18 -18 -11 0 -37 -20 -60 -45 -22 -25 -37 -45 -32 -45 4 0 11 -7 14 -16 3 -8
2 -12 -4 -9 -6 4 -19 4 -29 0 -18 -5 -19 -14 -16 -83 2 -42 4 -81 5 -87 0 -5
8 6 16 25 8 19 22 38 30 43 7 4 14 14 14 22 0 7 12 23 26 34 15 12 21 21 14
21 -9 0 -8 6 4 19 10 11 26 17 39 15 12 -2 16 -2 10 2 -7 3 -13 10 -13 15 0 6
5 7 10 4 6 -3 10 1 10 9 0 33 -62 -13 -76 -56 -3 -11 -8 -17 -11 -14 -10 10
-33 -22 -27 -38 4 -11 0 -13 -16 -9 -14 4 -18 9 -11 16 11 11 3 39 -10 31 -5
-3 -9 -1 -9 5 0 14 18 23 22 10 2 -5 11 -7 21 -3 10 3 16 13 13 20 -3 7 -1 16
5 20 6 3 8 11 6 17 -4 11 20 36 35 37 3 0 4 -10 1 -22 -3 -18 -1 -17 13 7 9
17 30 42 46 58 16 15 28 32 26 37 -2 6 -9 0 -17 -11z m-147 -254 c-9 -14 -18
-25 -20 -25 -2 0 2 11 8 25 6 14 15 25 20 25 5 0 1 -11 -8 -25z"/>
<path d="M44 438 l-19 -23 25 20 24 20 -17 -27 c-22 -35 -8 -36 21 -3 27 31
27 35 4 35 -11 0 -27 -10 -38 -22z"/>
<path d="M13 380 c-10 -27 -10 -28 8 -17 21 13 22 17 11 34 -5 8 -11 3 -19
-17z"/>
<path d="M149 394 c-10 -12 -8 -14 9 -11 28 4 36 13 18 20 -8 3 -20 -1 -27 -9z"/>
<path d="M130 310 c0 -5 5 -10 10 -10 6 0 10 5 10 10 0 6 -4 10 -10 10 -5 0
-10 -4 -10 -10z"/>
<path d="M130 180 c-9 -6 -7 -10 9 -15 27 -8 33 -4 16 12 -6 6 -18 7 -25 3z"/>
<path d="M182 155 c-9 -20 -9 -23 3 -18 8 3 12 9 9 14 -3 5 0 9 5 9 6 0 11 5
11 10 0 19 -17 10 -28 -15z"/>
<path d="M60 150 c0 -12 5 -18 10 -15 16 10 16 -72 -1 -89 -11 -12 -12 -46 -1
-46 4 0 14 23 24 50 14 45 15 54 1 80 -19 38 -33 47 -33 20z"/>
<path d="M1295 159 c-4 -6 -5 -12 -2 -15 2 -3 7 2 10 11 7 17 1 20 -8 4z"/>
<path d="M100 149 c0 -5 5 -7 10 -4 6 3 10 8 10 11 0 2 -4 4 -10 4 -5 0 -10
-5 -10 -11z"/>
<path d="M1 124 c0 -11 3 -14 6 -6 3 7 2 16 -1 19 -3 4 -6 -2 -5 -13z"/>
<path d="M116 131 c-4 -7 -5 -15 -2 -18 9 -9 19 4 14 18 -4 11 -6 11 -12 0z"/>
<path d="M45 110 c-3 -5 -1 -10 5 -10 6 0 9 -4 5 -9 -3 -5 -2 -12 3 -15 4 -2
8 6 8 20 0 25 -10 32 -21 14z"/>
<path d="M160 110 c-13 -9 -13 -10 0 -10 12 -1 11 -3 -2 -11 -10 -5 -23 -19
-29 -31 -8 -16 -8 -19 1 -13 9 5 10 1 5 -14 -3 -11 -2 -21 2 -21 16 0 32 22
26 36 -3 8 0 14 7 14 6 0 8 4 5 10 -3 5 -1 19 5 30 12 22 4 25 -20 10z"/>
<path d="M226 105 c-9 -26 -7 -32 5 -12 6 10 9 21 6 23 -2 3 -7 -2 -11 -11z"/>
<path d="M22 70 c-7 -12 -8 -21 -2 -25 6 -3 10 2 10 12 0 15 2 16 10 3 5 -8
11 -12 14 -10 2 3 -1 13 -8 22 -11 15 -13 15 -24 -2z"/>
<path d="M291 64 c0 -11 3 -14 6 -6 3 7 2 16 -1 19 -3 4 -6 -2 -5 -13z"/>
<path d="M7 23 c-4 -3 -7 -11 -7 -17 0 -6 5 -5 12 2 6 6 9 14 7 17 -3 3 -9 2
-12 -2z"/>
<path d="M105 21 c-3 -5 -1 -12 5 -16 5 -3 10 1 10 9 0 18 -6 21 -15 7z"/>
<path d="M1384 9 c-3 -5 6 -9 20 -9 31 0 34 6 6 13 -11 3 -23 1 -26 -4z"/>
</g>
</svg>
